<?xml version="1.0" encoding="UTF-8"?>
<svg width="395px" height="626px" viewBox="0 0 395 626" version="1.1" xmlns="http://www.w3.org/2000/svg" xmlns:xlink="http://www.w3.org/1999/xlink">
    <title>ED5F7261-6DE4-4A8B-8C28-17F034D82AC1</title>
    <defs>
        <polygon id="path-1" points="0 0 109 0 109 109 0 109"></polygon>
        <polygon id="path-3" points="0 0 395 0 395 35 0 35"></polygon>
        <polygon id="path-5" points="0 0 395 0 395 35 0 35"></polygon>
    </defs>
    <g id="Page-1" stroke="none" stroke-width="1" fill="none" fill-rule="evenodd">
        <g id="Tarieven" transform="translate(-1330.000000, -318.000000)">
            <g id="illustratie/tarieven" transform="translate(1330.000000, 318.000000)">
                <g id="Group-3" transform="translate(143.000000, 0.000000)">
                    <mask id="mask-2" fill="white">
                        <use xlink:href="#path-1"></use>
                    </mask>
                    <g id="Clip-2"></g>
                    <path d="M109,54.4997058 C109,84.6004836 84.6006154,109 54.5,109 C24.4023265,109 0,84.6004836 0,54.4997058 C0,24.398928 24.4023265,-0.000588365478 54.5,-0.000588365478 C84.6006154,-0.000588365478 109,24.398928 109,54.4997058" id="Fill-1" fill="#D3AE37" mask="url(#mask-2)"></path>
                </g>
                <path d="M197,96.0842893 C173.758236,96.0842893 154.915711,77.2417643 154.915711,54 C154.915711,30.7552911 173.758236,11.9157107 197,11.9157107 C220.241764,11.9157107 239.084289,30.7552911 239.084289,54 C239.084289,77.2417643 220.241764,96.0842893 197,96.0842893 M197,6 C170.489725,6 149,27.4897246 149,54 C149,80.5073308 170.489725,102 197,102 C223.510275,102 245,80.5073308 245,54 C245,27.4897246 223.510275,6 197,6" id="Fill-4" fill="#886D16"></path>
                <path d="M202.227957,76 C198.101161,76 194.588559,74.7441236 191.684301,72.2353257 C188.780043,69.7265279 186.829247,66.1066488 185.828989,61.3727334 L180,61.3727334 L180,56.0330423 L185.168,56.0330423 C185.089032,54.5762257 185.089032,53.2021491 185.168,51.9049026 L180,51.9049026 L180,46.5652116 L185.828989,46.5652116 C186.870194,41.8726662 188.835613,38.2734721 191.719398,35.7646743 C194.597333,33.2558764 198.101161,32 202.227957,32 C204.550194,32 206.755441,32.4255205 208.837849,33.2736064 C210.920258,34.1246474 212.64,35.3775688 214,37.0382807 L211.475957,42.4400269 C210.194925,41.0245803 208.837849,40.0346541 207.395957,39.4643385 C205.954065,38.8999328 204.406882,38.6162525 202.771957,38.6162525 C200.604731,38.6162525 198.732903,39.2545332 197.153548,40.5281397 C195.571269,41.8017461 194.421849,43.8141034 193.699441,46.5652116 L202.707613,46.5652116 L202.707613,51.9049026 L192.798624,51.9049026 C192.760602,53.2819342 192.778151,54.6560107 192.857118,56.0330423 L202.707613,56.0330423 L202.707613,61.3727334 L193.699441,61.3727334 C194.421849,64.1652116 195.571269,66.1982539 197.153548,67.4718603 C198.732903,68.7484218 200.604731,69.3837475 202.771957,69.3837475 C204.406882,69.3837475 205.954065,69.0912021 207.395957,68.5061115 C208.837849,67.9180658 210.194925,66.9370047 211.475957,65.5629281 L214,70.8996642 C212.64,72.6017461 210.920258,73.8753526 208.837849,74.7263936 C206.755441,75.5744795 204.550194,76 202.227957,76" id="Fill-6" fill="#886D16"></path>
                <g id="Group-10" transform="translate(0.000000, 83.000000)">
                    <mask id="mask-4" fill="white">
                        <use xlink:href="#path-3"></use>
                    </mask>
                    <g id="Clip-9"></g>
                    <polygon id="Fill-8" fill="#1B6B6B" mask="url(#mask-4)" points="380.344936 35 14.657116 35 -0.000879303858 0 395 0"></polygon>
                </g>
                <g id="Group-13" transform="translate(0.000000, 591.000000)">
                    <mask id="mask-6" fill="white">
                        <use xlink:href="#path-5"></use>
                    </mask>
                    <g id="Clip-12"></g>
                    <polygon id="Fill-11" fill="#1B6B6B" mask="url(#mask-6)" points="14.6550643 0 380.342884 0 395.000879 35 0 35"></polygon>
                </g>
                <path d="M275.82382,354.001466 C343.089383,324.03847 390,256.725065 390,178.42728 C390,157.30866 386.54145,137.010863 380.237965,118 L14.7620355,118 C8.45854972,137.010863 5,157.30866 5,178.42728 C5,256.725065 51.9106175,324.03847 119.17618,354.001466 C51.9106175,383.964462 5,451.277866 5,529.575651 C5,550.694272 8.45854972,570.992069 14.7620355,590 L380.237965,590 C386.54145,570.992069 390,550.694272 390,529.575651 C390,451.277866 343.089383,383.964462 275.82382,354.001466" id="Fill-14" fill="#EAF1F1"></path>
                <path d="M39.693052,579 L355.308221,579 C360.765932,579 363.919797,572.800482 360.713172,568.376868 L264.511483,435.7565 C240.863355,403.153258 228.124787,363.892581 228.124787,323.595714 L228.124787,341.207981 C269.687809,332.325528 329.159862,288.227348 329.159862,256.93035 C329.159862,218.35655 65.8414103,218.35655 65.8414103,256.93035 C65.8414103,288.227348 125.313464,332.325528 166.876486,341.207981 L166.876486,323.595714 C166.876486,363.892581 154.137918,403.153258 130.489789,435.7565 L34.2881005,568.376868 C31.0785441,572.800482 34.2353407,579 39.693052,579" id="Fill-16" fill="#D3AE37"></path>
            </g>
        </g>
    </g>
</svg>