<?xml version="1.0" encoding="UTF-8"?>
<svg width="468px" height="651px" viewBox="0 0 468 651" version="1.1" xmlns="http://www.w3.org/2000/svg" xmlns:xlink="http://www.w3.org/1999/xlink">
    <title>F2A36085-D889-4C70-953B-08B7A1793C7F</title>
    <defs>
        <path d="M40.814938,1.44409454 L11.6113276,37.148651 L7.430807,26.6612549 C5.76623941,21.9911077 -1.53875639,24.7321626 0.292267958,29.4295569 L0.292267958,29.4295569 L6.64764159,45.6824323 C7.73916132,48.5624473 11.592226,49.1755063 13.5187583,46.7695903 L13.5187583,46.7695903 L46.7719069,6.1115171 C49.1132167,3.35683864 46.4935694,0 43.6747197,0 L43.6747197,0 C42.6759791,0 41.6526794,0.422329536 40.814938,1.44409454 L40.814938,1.44409454 Z" id="path-1"></path>
        <path d="M40.814938,1.44409454 L11.6113276,37.148651 L7.430807,26.6612549 C5.76623941,21.9911077 -1.53875639,24.7321626 0.292267958,29.4295569 L0.292267958,29.4295569 L6.64764159,45.6824323 C7.73916132,48.5624473 11.592226,49.1755063 13.5187583,46.7695903 L13.5187583,46.7695903 L46.7719069,6.1115171 C49.1132167,3.35683864 46.4935694,0 43.6774485,0 L43.6774485,0 C42.6759791,0 41.6526794,0.422329536 40.814938,1.44409454 L40.814938,1.44409454 Z" id="path-3"></path>
        <path d="M40.814938,1.44409454 L11.6113276,37.148651 L7.430807,26.6612549 L7.430807,26.6585302 C5.76623941,21.9938324 -1.53875639,24.7321626 0.292267958,29.4268322 L0.292267958,29.4268322 L6.64764159,45.6824323 C7.73916132,48.565172 11.592226,49.1727816 13.5187583,46.7668656 L13.5187583,46.7668656 L46.7719069,6.1115171 C49.1132167,3.35411393 46.4935694,0 43.6747197,0 L43.6747197,0 C42.6759791,0 41.6526794,0.422329536 40.814938,1.44409454 L40.814938,1.44409454 Z" id="path-5"></path>
        <path d="M40.814938,1.44409454 L11.6113276,37.148651 L7.430807,26.6612549 L7.430807,26.6585302 C5.76623941,21.9938324 -1.53875639,24.7321626 0.292267958,29.4268322 L0.292267958,29.4268322 L6.64764159,45.6824323 C7.73916132,48.565172 11.592226,49.1727816 13.5187583,46.7668656 L13.5187583,46.7668656 L46.7719069,6.1115171 C49.1132167,3.35683864 46.4935694,0 43.6774485,0 L43.6774485,0 C43.6719909,0 43.6692621,0 43.6665333,0 L43.6665333,0 C42.6705215,0 41.6499506,0.425054243 40.814938,1.44409454 L40.814938,1.44409454 Z" id="path-7"></path>
        <path d="M40.814938,1.44409454 L11.6113276,37.148651 L7.430807,26.6612549 L7.430807,26.6585302 C5.76623941,21.9938324 -1.53875639,24.7321626 0.292267958,29.4295569 L0.292267958,29.4295569 L6.64764159,45.6824323 C7.73916132,48.565172 11.592226,49.1727816 13.5187583,46.7668656 L13.5187583,46.7668656 L46.7719069,6.1115171 C49.1132167,3.35683864 46.4935694,0 43.6747197,0 L43.6747197,0 C42.6759791,0 41.6526794,0.422329536 40.814938,1.44409454 L40.814938,1.44409454 Z" id="path-9"></path>
        <path d="M40.814938,1.44409454 L11.6113276,37.148651 L7.430807,26.6612549 L7.430807,26.6585302 C5.76623941,21.9938324 -1.53875639,24.7321626 0.292267958,29.4295569 L0.292267958,29.4295569 L6.64764159,45.6824323 C7.73916132,48.565172 11.592226,49.1727816 13.5187583,46.7668656 L13.5187583,46.7668656 L46.7719069,6.1115171 C49.1132167,3.35683864 46.4935694,0 43.6774485,0 L43.6774485,0 C43.6719909,0 43.6692621,0 43.6665333,0 L43.6665333,0 C42.6705215,0 41.6499506,0.425054243 40.814938,1.44409454 L40.814938,1.44409454 Z" id="path-11"></path>
    </defs>
    <g id="Page-1" stroke="none" stroke-width="1" fill="none" fill-rule="evenodd">
        <g id="Werking" transform="translate(-1211.000000, -386.000000)">
            <g id="illustratie/werkwijzen" transform="translate(1211.000000, 386.000000)">
                <g id="Group-96" transform="translate(0.000000, 0.000000)">
                    <g id="Group-9">
                        <path d="M445.09173,651 L22.9109992,651 C10.2575567,651 0,640.757828 0,628.126087 L0,62.2072334 C0,49.5754932 10.2575567,39.3333208 22.9109992,39.3333208 L445.09173,39.3333208 C457.745172,39.3333208 468,49.5754932 468,62.2072334 L468,628.126087 C468,640.757828 457.745172,651 445.09173,651" id="Fill-1" fill="#1B6B6B"></path>
                        <path d="M420.094836,618.329404 L47.9084383,618.329404 C35.2549958,618.329404 24.9974391,608.087232 24.9974391,595.455492 L24.9974391,94.8778289 C24.9974391,82.2460887 35.2549958,72.0039163 47.9084383,72.0039163 L420.094836,72.0039163 C432.748279,72.0039163 443.003107,82.2460887 443.003107,94.8778289 L443.003107,595.455492 C443.003107,608.087232 432.748279,618.329404 420.094836,618.329404" id="Fill-3" fill="#FEFEFE"></path>
                        <path d="M286.300168,99.1090259 L181.702561,99.1090259 C173.554366,99.1090259 166.950672,92.5152358 166.950672,84.3792616 L166.950672,39.3425848 L301.052057,39.3425848 L301.052057,84.3792616 C301.052057,92.5152358 294.448363,99.1090259 286.300168,99.1090259" id="Fill-5" fill="#D3AE37"></path>
                        <path d="M234.001092,28.3914437 C227.20911,28.3914437 221.702393,22.8929856 221.702393,16.1111906 C221.702393,11.3865492 224.403904,7.33218569 228.319731,5.27775685 C228.518934,5.16331917 228.718136,5.0516062 228.930982,4.94806734 C229.089253,4.87722497 229.242065,4.80093318 229.403065,4.73554022 C230.044332,4.46306955 230.73199,4.24781772 231.460579,4.09795886 C231.506969,4.08706003 231.556087,4.07888591 231.602477,4.07071179 C231.820781,4.02984119 232.030898,3.97534705 232.25466,3.94537528 C232.620319,3.89633056 232.966877,3.91540351 233.324349,3.89633056 C233.553568,3.88543173 233.769144,3.82821289 234.001092,3.82821289 C234.088413,3.82821289 234.170277,3.85273525 234.257599,3.85545996 C234.857935,3.86635879 235.428254,3.93720116 235.993115,4.02984119 C236.181402,4.05981296 236.377876,4.06526238 236.563434,4.10340827 C237.311125,4.26144126 238.020613,4.47669309 238.672796,4.75733787 C243.145298,6.59651489 246.29979,10.9805679 246.29979,16.1111906 C246.29979,22.8929856 240.793073,28.3914437 234.001092,28.3914437 L234.001092,28.3914437 Z M276.392989,3.79279171 C274.782997,1.47134161 271.429303,0 267.756339,0 L200.245844,0 C196.57288,0 193.219186,1.47134161 191.609194,3.79279171 L166.949034,39.3420398 L301.053149,39.3420398 L276.392989,3.79279171 Z" id="Fill-7" fill="#DCBD63"></path>
                    </g>
                    <text id="DIEET-PLAN" font-family="NunitoSans-Bold, Nunito Sans" font-size="32.7" font-weight="bold">
                        <tspan x="138.812112" y="154.221494" fill="#D3AE37">DIE</tspan>
                        <tspan x="192.440112" y="154.221494" letter-spacing="-0.166769997" fill="#D3AE37">E</tspan>
                        <tspan x="211.631742" y="154.221494" fill="#D3AE37">T</tspan>
                        <tspan x="231.938442" y="154.221494" fill="#1D1D1B"> </tspan>
                        <tspan x="240.767442" y="154.221494" fill="#1B6B6B">P</tspan>
                        <tspan x="262.087842" y="154.221494" letter-spacing="-0.490500019" fill="#1B6B6B">L</tspan>
                        <tspan x="279.484242" y="154.221494" fill="#1B6B6B">AN</tspan>
                    </text>
                    <g id="Group-24" transform="translate(54.656486, 179.145260)">
                        <path d="M40.2497901,74.3524062 L8.49748111,74.3524062 C3.80394626,74.3524062 0,70.5541651 0,65.8703943 L0,34.1629826 C0,29.4792118 3.80394626,25.6809707 8.49748111,25.6809707 L40.2497901,25.6809707 C44.9433249,25.6809707 48.7445424,29.4792118 48.7445424,34.1629826 L48.7445424,65.8703943 C48.7445424,70.5541651 44.9433249,74.3524062 40.2497901,74.3524062" id="Fill-10" fill="#C1E2E2"></path>
                        <path d="M40.2497901,140.595475 L8.49748111,140.595475 C3.80394626,140.595475 0,136.797234 0,132.113463 L0,100.406052 C0,95.7222807 3.80394626,91.9240396 8.49748111,91.9240396 L40.2497901,91.9240396 C44.9433249,91.9240396 48.7445424,95.7222807 48.7445424,100.406052 L48.7445424,132.113463 C48.7445424,136.797234 44.9433249,140.595475 40.2497901,140.595475" id="Fill-12" fill="#C1E2E2"></path>
                        <path d="M40.2497901,206.838272 L8.49748111,206.838272 C3.80394626,206.838272 0,203.04003 0,198.35626 L0,166.648848 C0,161.965077 3.80394626,158.166836 8.49748111,158.166836 L40.2497901,158.166836 C44.9433249,158.166836 48.7445424,161.965077 48.7445424,166.648848 L48.7445424,198.35626 C48.7445424,203.04003 44.9433249,206.838272 40.2497901,206.838272" id="Fill-14" fill="#C1E2E2"></path>
                        <path d="M40.2497901,273.081341 L8.49748111,273.081341 C3.80394626,273.081341 0,269.283099 0,264.599329 L0,232.891917 C0,228.208146 3.80394626,224.409905 8.49748111,224.409905 L40.2497901,224.409905 C44.9433249,224.409905 48.7445424,228.208146 48.7445424,232.891917 L48.7445424,264.599329 C48.7445424,269.283099 44.9433249,273.081341 40.2497901,273.081341" id="Fill-16" fill="#C1E2E2"></path>
                        <path d="M40.2497901,339.324137 L8.49748111,339.324137 C3.80394626,339.324137 0,335.525896 0,330.842125 L0,299.134713 C0,294.450943 3.80394626,290.652702 8.49748111,290.652702 L40.2497901,290.652702 C44.9433249,290.652702 48.7445424,294.450943 48.7445424,299.134713 L48.7445424,330.842125 C48.7445424,335.525896 44.9433249,339.324137 40.2497901,339.324137" id="Fill-18" fill="#C1E2E2"></path>
                        <path d="M40.2497901,405.567206 L8.49748111,405.567206 C3.80394626,405.567206 0,401.768965 0,397.085194 L0,365.377782 C0,360.694012 3.80394626,356.89577 8.49748111,356.89577 L40.2497901,356.89577 C44.9433249,356.89577 48.7445424,360.694012 48.7445424,365.377782 L48.7445424,397.085194 C48.7445424,401.768965 44.9433249,405.567206 40.2497901,405.567206" id="Fill-20" fill="#C1E2E2"></path>
                        <path d="M16.2947523,26.6602823 C14.6301847,21.9928597 7.32246012,24.7311899 9.15621327,29.4285843 L15.5115869,45.6814596 C16.6003778,48.5641993 20.4561713,49.1745336 22.3854324,46.7686176 L55.638581,6.11326916 C58.806717,2.37769629 52.8743073,-2.45593337 49.6788833,1.4431219 L20.4752729,37.1476783 L16.2974811,26.6602823 L16.2947523,26.6602823 Z" id="Fill-22" fill="#D3AE37"></path>
                    </g>
                    <g id="Group-27" transform="translate(63.520159, 179.144833)">
                        <mask id="mask-2" fill="white">
                            <use xlink:href="#path-1"></use>
                        </mask>
                        <g id="Clip-26"></g>
                        <polygon id="Fill-25" fill="#D3AE37" mask="url(#mask-2)" points="-1187.29211 1473.78295 208.409606 1473.78295 208.409606 -454.769894 -1187.29211 -454.769894"></polygon>
                    </g>
                    <g id="Group-30" transform="translate(63.520159, 179.144833)">
                        <mask id="mask-4" fill="white">
                            <use xlink:href="#path-3"></use>
                        </mask>
                        <g id="Clip-29"></g>
                        <polygon id="Fill-28" fill="#D3AE37" mask="url(#mask-4)" points="0.351482903 13.1828963 56.1144972 22.0027719 47.1885946 78.2788638 -8.5744197 69.4589882"></polygon>
                    </g>
                    <path d="M70.9512385,272.048339 C69.2866709,267.380917 61.9789463,270.119247 63.8126994,274.816641 L70.168073,291.069516 C71.256864,293.952256 75.1126574,294.56259 77.0419186,292.156674 L110.295067,251.501326 C113.463203,247.765753 107.530793,242.932123 104.335369,246.831179 L75.131759,282.535735 L70.9539673,272.048339 L70.9512385,272.048339 Z" id="Fill-31" fill="#D3AE37"></path>
                    <g id="Group-35" transform="translate(63.520159, 245.387902)">
                        <mask id="mask-6" fill="white">
                            <use xlink:href="#path-5"></use>
                        </mask>
                        <g id="Clip-34"></g>
                        <polygon id="Fill-33" fill="#D3AE37" mask="url(#mask-6)" points="-1187.29211 1473.78295 208.409606 1473.78295 208.409606 -454.769894 -1187.29211 -454.769894"></polygon>
                    </g>
                    <g id="Group-38" transform="translate(63.520159, 245.387902)">
                        <mask id="mask-8" fill="white">
                            <use xlink:href="#path-7"></use>
                        </mask>
                        <g id="Clip-37"></g>
                        <polygon id="Fill-36" fill="#D3AE37" mask="url(#mask-8)" points="0.351482903 13.1826239 56.1144972 22.0024994 47.1885946 78.2785913 -8.5744197 69.4587158"></polygon>
                    </g>
                    <path d="M70.9512385,338.084603 C69.2866709,333.41718 61.9789463,336.15551 63.8126994,340.852905 L70.168073,357.10578 C71.256864,359.98852 75.1126574,360.598854 77.0419186,358.192938 L110.295067,317.53759 C113.463203,313.802017 107.530793,308.968387 104.335369,312.867442 L75.131759,348.571999 L70.9539673,338.084603 L70.9512385,338.084603 Z" id="Fill-39" fill="#D3AE37"></path>
                    <g id="Group-43" transform="translate(63.520159, 311.423893)">
                        <mask id="mask-10" fill="white">
                            <use xlink:href="#path-9"></use>
                        </mask>
                        <g id="Clip-42"></g>
                        <polygon id="Fill-41" fill="#D3AE37" mask="url(#mask-10)" points="-1187.29211 1473.78295 208.409606 1473.78295 208.409606 -454.769894 -1187.29211 -454.769894"></polygon>
                    </g>
                    <g id="Group-46" transform="translate(63.520159, 311.423893)">
                        <mask id="mask-12" fill="white">
                            <use xlink:href="#path-11"></use>
                        </mask>
                        <g id="Clip-45"></g>
                        <polygon id="Fill-44" fill="#D3AE37" mask="url(#mask-12)" points="0.351482903 13.1828963 56.1144972 22.0027719 47.1885946 78.2788638 -8.5744197 69.4589882"></polygon>
                    </g>
                    <g id="Group-95" transform="translate(141.332158, 206.325910)" fill="#C1E2E2">
                        <path d="M268.975021,4.79003435 L2.39861461,4.79003435 C1.07514694,4.79003435 0,3.71922463 0,2.39501718 C0,1.07353443 1.07514694,0 2.39861461,0 L268.975021,0 C270.298489,0 271.373636,1.07353443 271.373636,2.39501718 C271.373636,3.71922463 270.298489,4.79003435 268.975021,4.79003435" id="Fill-47"></path>
                        <path d="M268.975021,18.5814097 L2.39861461,18.5814097 C1.07514694,18.5814097 0,17.5106 0,16.1863925 C0,14.8649098 1.07514694,13.7941001 2.39861461,13.7941001 L268.975021,13.7941001 C270.298489,13.7941001 271.373636,14.8649098 271.373636,16.1863925 C271.373636,17.5106 270.298489,18.5814097 268.975021,18.5814097" id="Fill-49"></path>
                        <path d="M268.975021,32.3730575 L2.39861461,32.3730575 C1.07514694,32.3730575 0,31.3022478 0,29.9780404 C0,28.6565576 1.07514694,27.5830232 2.39861461,27.5830232 L268.975021,27.5830232 C270.298489,27.5830232 271.373636,28.6565576 271.373636,29.9780404 C271.373636,31.3022478 270.298489,32.3730575 268.975021,32.3730575" id="Fill-51"></path>
                        <path d="M268.975021,46.1644329 L2.39861461,46.1644329 C1.07514694,46.1644329 0,45.0936232 0,43.7694157 C0,42.447933 1.07514694,41.3743986 2.39861461,41.3743986 L268.975021,41.3743986 C270.298489,41.3743986 271.373636,42.447933 271.373636,43.7694157 C271.373636,45.0936232 270.298489,46.1644329 268.975021,46.1644329" id="Fill-53"></path>
                        <path d="M268.975021,70.7856999 L2.39861461,70.7856999 C1.07514694,70.7856999 0,69.7148902 0,68.3906828 C0,67.0692 1.07514694,65.9956656 2.39861461,65.9956656 L268.975021,65.9956656 C270.298489,65.9956656 271.373636,67.0692 271.373636,68.3906828 C271.373636,69.7148902 270.298489,70.7856999 268.975021,70.7856999" id="Fill-55"></path>
                        <path d="M268.975021,84.5770753 L2.39861461,84.5770753 C1.07514694,84.5770753 0,83.5062656 0,82.1820581 C0,80.8605754 1.07514694,79.7870409 2.39861461,79.7870409 L268.975021,79.7870409 C270.298489,79.7870409 271.373636,80.8605754 271.373636,82.1820581 C271.373636,83.5062656 270.298489,84.5770753 268.975021,84.5770753" id="Fill-57"></path>
                        <path d="M268.975021,98.3684507 L2.39861461,98.3684507 C1.07514694,98.3684507 0,97.2976409 0,95.9734335 C0,94.6519507 1.07514694,93.581141 2.39861461,93.581141 L268.975021,93.581141 C270.298489,93.581141 271.373636,94.6519507 271.373636,95.9734335 C271.373636,97.2976409 270.298489,98.3684507 268.975021,98.3684507" id="Fill-59"></path>
                        <path d="M268.975021,112.160098 L2.39861461,112.160098 C1.07514694,112.160098 0,111.089289 0,109.765081 C0,108.443599 1.07514694,107.370064 2.39861461,107.370064 L268.975021,107.370064 C270.298489,107.370064 271.373636,108.443599 271.373636,109.765081 C271.373636,111.089289 270.298489,112.160098 268.975021,112.160098" id="Fill-61"></path>
                        <path d="M268.975021,137.028496 L2.39861461,137.028496 C1.07514694,137.028496 0,135.957687 0,134.633479 L0,134.633479 C0,133.311996 1.07514694,132.238462 2.39861461,132.238462 L268.975021,132.238462 C270.298489,132.238462 271.373636,133.311996 271.373636,134.633479 L271.373636,134.633479 C271.373636,135.957687 270.298489,137.028496 268.975021,137.028496" id="Fill-63"></path>
                        <path d="M268.975021,150.820144 L2.39861461,150.820144 C1.07514694,150.820144 0,149.749335 0,148.425127 C0,147.103644 1.07514694,146.03011 2.39861461,146.03011 L268.975021,146.03011 C270.298489,146.03011 271.373636,147.103644 271.373636,148.425127 C271.373636,149.749335 270.298489,150.820144 268.975021,150.820144" id="Fill-65"></path>
                        <path d="M268.975021,164.61152 L2.39861461,164.61152 C1.07514694,164.61152 0,163.54071 0,162.216502 C0,160.89502 1.07514694,159.82421 2.39861461,159.82421 L268.975021,159.82421 C270.298489,159.82421 271.373636,160.89502 271.373636,162.216502 C271.373636,163.54071 270.298489,164.61152 268.975021,164.61152" id="Fill-67"></path>
                        <path d="M268.975021,178.402895 L2.39861461,178.402895 C1.07514694,178.402895 0,177.332085 0,176.007878 C0,174.686395 1.07514694,173.615585 2.39861461,173.615585 L268.975021,173.615585 C270.298489,173.615585 271.373636,174.686395 271.373636,176.007878 C271.373636,177.332085 270.298489,178.402895 268.975021,178.402895" id="Fill-69"></path>
                        <path d="M268.975021,203.271565 L2.39861461,203.271565 C1.07514694,203.271565 0,202.200756 0,200.876548 C0,199.555065 1.07514694,198.481531 2.39861461,198.481531 L268.975021,198.481531 C270.298489,198.481531 271.373636,199.555065 271.373636,200.876548 C271.373636,202.200756 270.298489,203.271565 268.975021,203.271565" id="Fill-71"></path>
                        <path d="M268.975021,217.062941 L2.39861461,217.062941 C1.07514694,217.062941 0,215.992131 0,214.667924 C0,213.346441 1.07514694,212.272906 2.39861461,212.272906 L268.975021,212.272906 C270.298489,212.272906 271.373636,213.346441 271.373636,214.667924 C271.373636,215.992131 270.298489,217.062941 268.975021,217.062941" id="Fill-73"></path>
                        <path d="M268.975021,230.854316 L2.39861461,230.854316 C1.07514694,230.854316 0,229.783506 0,228.459299 C0,227.137816 1.07514694,226.067006 2.39861461,226.067006 L268.975021,226.067006 C270.298489,226.067006 271.373636,227.137816 271.373636,228.459299 C271.373636,229.783506 270.298489,230.854316 268.975021,230.854316" id="Fill-75"></path>
                        <path d="M268.975021,244.645964 L2.39861461,244.645964 C1.07514694,244.645964 0,243.575154 0,242.250947 C0,240.929464 1.07514694,239.85593 2.39861461,239.85593 L268.975021,239.85593 C270.298489,239.85593 271.373636,240.929464 271.373636,242.250947 C271.373636,243.575154 270.298489,244.645964 268.975021,244.645964" id="Fill-77"></path>
                        <path d="M268.975021,269.514362 L2.39861461,269.514362 C1.07514694,269.514362 0,268.443552 0,267.119345 C0,265.797862 1.07514694,264.727052 2.39861461,264.727052 L268.975021,264.727052 C270.298489,264.727052 271.373636,265.797862 271.373636,267.119345 C271.373636,268.443552 270.298489,269.514362 268.975021,269.514362" id="Fill-79"></path>
                        <path d="M268.975021,283.30601 L2.39861461,283.30601 C1.07514694,283.30601 0,282.2352 0,280.910992 C0,279.58951 1.07514694,278.515975 2.39861461,278.515975 L268.975021,278.515975 C270.298489,278.515975 271.373636,279.58951 271.373636,280.910992 C271.373636,282.2352 270.298489,283.30601 268.975021,283.30601" id="Fill-81"></path>
                        <path d="M268.975021,297.097385 L2.39861461,297.097385 C1.07514694,297.097385 0,296.026575 0,294.702368 C0,293.380885 1.07514694,292.310075 2.39861461,292.310075 L268.975021,292.310075 C270.298489,292.310075 271.373636,293.380885 271.373636,294.702368 C271.373636,296.026575 270.298489,297.097385 268.975021,297.097385" id="Fill-83"></path>
                        <path d="M268.975021,310.88876 L2.39861461,310.88876 C1.07514694,310.88876 0,309.817951 0,308.493743 C0,307.17226 1.07514694,306.101451 2.39861461,306.101451 L268.975021,306.101451 C270.298489,306.101451 271.373636,307.17226 271.373636,308.493743 C271.373636,309.817951 270.298489,310.88876 268.975021,310.88876" id="Fill-85"></path>
                        <path d="M268.975021,335.757431 L2.39861461,335.757431 C1.07514694,335.757431 0,334.686621 0,333.362414 C0,332.040931 1.07514694,330.970121 2.39861461,330.970121 L268.975021,330.970121 C270.298489,330.970121 271.373636,332.040931 271.373636,333.362414 C271.373636,334.686621 270.298489,335.757431 268.975021,335.757431" id="Fill-87"></path>
                        <path d="M268.975021,349.548806 L2.39861461,349.548806 C1.07514694,349.548806 0,348.477996 0,347.153789 C0,345.832306 1.07514694,344.761497 2.39861461,344.761497 L268.975021,344.761497 C270.298489,344.761497 271.373636,345.832306 271.373636,347.153789 C271.373636,348.477996 270.298489,349.548806 268.975021,349.548806" id="Fill-89"></path>
                        <path d="M268.975021,363.340454 L2.39861461,363.340454 C1.07514694,363.340454 0,362.269644 0,360.945437 C0,359.623954 1.07514694,358.55042 2.39861461,358.55042 L268.975021,358.55042 C270.298489,358.55042 271.373636,359.623954 271.373636,360.945437 C271.373636,362.269644 270.298489,363.340454 268.975021,363.340454" id="Fill-91"></path>
                        <path d="M268.975021,377.131829 L2.39861461,377.131829 C1.07514694,377.131829 0,376.06102 0,374.736812 C0,373.415329 1.07514694,372.34452 2.39861461,372.34452 L268.975021,372.34452 C270.298489,372.34452 271.373636,373.415329 271.373636,374.736812 C271.373636,376.06102 270.298489,377.131829 268.975021,377.131829" id="Fill-93"></path>
                    </g>
                </g>
            </g>
        </g>
    </g>
</svg>